<svg width="56" height="56" viewBox="0 0 56 56" fill="none" xmlns="http://www.w3.org/2000/svg">
<path d="M54.6691 14.0364L28.4191 0.911374C28.289 0.846351 28.1455 0.8125 28 0.8125C27.8545 0.8125 27.7111 0.846351 27.581 0.911374L1.33095 14.0364C1.17511 14.1142 1.04405 14.234 0.952473 14.3822C0.860898 14.5304 0.812433 14.7012 0.812514 14.8754V41.1254C0.811559 41.3004 0.859612 41.4722 0.951235 41.6214C1.04286 41.7705 1.17439 41.891 1.33095 41.9692L27.581 55.0942C27.7111 55.1592 27.8545 55.1931 28 55.1931C28.1455 55.1931 28.289 55.1592 28.4191 55.0942L54.6691 41.9692C54.8256 41.891 54.9572 41.7705 55.0488 41.6214C55.1404 41.4722 55.1885 41.3004 55.1875 41.1254V14.8754C55.1876 14.7012 55.1391 14.5304 55.0476 14.3822C54.956 14.234 54.8249 14.1142 54.6691 14.0364ZM28 26.9523L20.6716 23.2876L44.096 10.8442L52.1585 14.8754L28 26.9523ZM13.1716 19.5376L36.596 7.09419L42.0335 9.81294L18.6119 22.2582L13.1716 19.5376ZM12.0625 21.0798L17.6875 23.8923V31.3623L15.5378 29.2126C15.3621 29.0368 15.1236 28.938 14.875 28.9379H12.0625V21.0798ZM28 2.79856L34.5363 6.06294L11.1119 18.5082L3.84626 14.8754L28 2.79856ZM2.68751 16.3923L10.1875 20.1423V29.8754C10.1875 30.1241 10.2863 30.3625 10.4621 30.5383C10.6379 30.7142 10.8764 30.8129 11.125 30.8129H14.4869L17.9622 34.2882C18.0933 34.4193 18.2603 34.5086 18.4422 34.5447C18.624 34.5809 18.8125 34.5623 18.9838 34.4914C19.155 34.4204 19.3014 34.3003 19.4045 34.1462C19.5075 33.992 19.5625 33.8108 19.5625 33.6254V24.8298L27.0625 28.5798V52.7336L2.68751 40.5461V16.3923ZM28.9375 52.7336V28.5798L53.3125 16.3923V40.5461L28.9375 52.7336Z" fill="black"/>
</svg>
