<svg width="56" height="56" viewBox="0 0 56 56" fill="none" xmlns="http://www.w3.org/2000/svg">
<path d="M28.0516 0.555664H28C20.7214 0.555664 13.7409 3.44708 8.59419 8.59383C3.44744 13.7406 0.55603 20.7211 0.55603 27.9997C0.55603 35.2783 3.44744 42.2588 8.59419 47.4055C13.7409 52.5522 20.7214 55.4437 28 55.4437C28.2387 55.4437 28.4676 55.3488 28.6364 55.1801C28.8052 55.0113 28.9 54.7824 28.9 54.5437C28.9 54.305 28.8052 54.076 28.6364 53.9073C28.4676 53.7385 28.2387 53.6437 28 53.6437C21.1988 53.6437 14.6762 50.9419 9.86698 46.1327C5.0578 41.3235 2.35603 34.8009 2.35603 27.9997C2.35603 21.1985 5.0578 14.6758 9.86698 9.86662C14.6762 5.05743 21.1988 2.35566 28 2.35566H28.0486C32.7306 2.36489 37.3208 3.65562 41.3214 6.08793C45.3221 8.52023 48.5805 12.0013 50.7436 16.1537C52.9066 20.3061 53.8916 24.9714 53.5919 29.6438C53.2922 34.3162 51.7191 38.8175 49.0432 42.6595C48.6474 43.2255 48.1321 43.6975 47.5336 44.0423C46.9351 44.387 46.2682 44.596 45.58 44.6545C44.8782 44.7161 44.1715 44.6232 43.5094 44.3824C42.8474 44.1416 42.2461 43.7587 41.7478 43.2607L40.9 42.4099C41.2264 42.2149 41.5474 42.0067 41.86 41.7823C42.4903 41.3404 43.0808 40.8443 43.6246 40.2997H43.6276C44.0912 39.8293 44.3502 39.1949 44.3483 38.5345C44.3464 37.8741 44.0837 37.2411 43.6174 36.7735L38.9566 32.1181C38.4883 31.6509 37.8538 31.3886 37.1923 31.3886C36.5309 31.3886 35.8964 31.6509 35.428 32.1181L34.732 32.8117C34.5032 33.0388 34.2521 33.2424 33.9826 33.4195C33.0879 33.998 32.0222 34.2532 30.9625 34.1426C29.9027 34.032 28.9127 33.5624 28.1566 32.8117L22.066 26.7211C21.4936 26.143 21.1729 25.362 21.174 24.5484C21.1752 23.7349 21.498 22.9548 22.072 22.3783L23.8816 20.5597C24.1139 20.3286 24.2982 20.0539 24.424 19.7514C24.5498 19.4489 24.6145 19.1245 24.6145 18.7969C24.6145 18.4692 24.5498 18.1448 24.424 17.8423C24.2982 17.5398 24.1139 17.2651 23.8816 17.0341L19.2286 12.3817C18.9983 12.1478 18.7235 11.9623 18.4205 11.8361C18.1175 11.7099 17.7923 11.6455 17.464 11.6467C16.838 11.6443 16.2346 11.8803 15.7762 12.3067C15.7484 12.3284 15.722 12.3519 15.697 12.3769C15.1567 12.9179 14.6629 13.5036 14.221 14.1277C12.4989 16.5284 11.592 19.4181 11.6335 22.3724C11.675 25.3267 12.6626 28.1898 14.4514 30.5413C17.5925 34.7046 21.2998 38.4088 25.4656 41.5465C27.8748 43.3724 30.8139 44.3625 33.8368 44.3665C35.6829 44.3644 37.5095 43.9899 39.2074 43.2655L40.4746 44.5345C41.1577 45.22 41.9833 45.7468 42.8927 46.0776C43.8022 46.4084 44.7733 46.535 45.7372 46.4485C46.6879 46.3671 47.609 46.0777 48.4354 45.6007C49.2618 45.1237 49.9732 44.4709 50.5192 43.6885C53.3834 39.5769 55.0673 34.7598 55.3883 29.7593C55.7094 24.7588 54.6553 19.7658 52.3405 15.3218C50.0256 10.8777 46.5383 7.15226 42.2566 4.54928C37.975 1.9463 33.0624 0.565175 28.0516 0.555664ZM26.5516 40.1089C22.5193 37.0737 18.9309 33.49 15.8902 29.4619C14.4457 27.5616 13.5997 25.2742 13.4602 22.8912C13.3206 20.5083 13.8938 18.1378 15.1066 16.0819L18.4384 19.4143C18.6073 19.5831 18.8363 19.678 19.075 19.678C19.3138 19.678 19.5428 19.5831 19.7116 19.4143C19.8805 19.2454 19.9753 19.0164 19.9753 18.7777C19.9753 18.5389 19.8805 18.3099 19.7116 18.1411L16.1506 14.5777C16.3906 14.2777 16.6426 13.9879 16.9132 13.7131C16.9373 13.6943 16.9603 13.6743 16.9822 13.6531C17.1132 13.527 17.2881 13.457 17.4699 13.4576C17.6516 13.4583 17.826 13.5297 17.956 13.6567L22.612 18.3127C22.677 18.3772 22.7284 18.4539 22.7634 18.5385C22.7985 18.6231 22.8163 18.7137 22.816 18.8053C22.8159 18.8955 22.7978 18.9848 22.7628 19.0679C22.7278 19.151 22.6765 19.2264 22.612 19.2895L20.791 21.1159C19.8833 22.0307 19.3739 23.2672 19.3739 24.556C19.3739 25.8447 19.8833 27.0812 20.791 27.9961L26.884 34.0843C27.843 35.035 29.0751 35.6623 30.408 35.8786C31.741 36.095 33.1082 35.8895 34.3186 35.2909L37.9786 38.9509C38.1484 39.1148 38.3757 39.2055 38.6117 39.2035C38.8477 39.2014 39.0734 39.1068 39.2403 38.9399C39.4071 38.773 39.5018 38.5473 39.5038 38.3113C39.5059 38.0753 39.4152 37.848 39.2512 37.6783L35.824 34.2511C35.884 34.1959 35.9494 34.1437 36.004 34.0867L36.7 33.3877C36.8306 33.2574 37.0076 33.1842 37.192 33.1842C37.3765 33.1842 37.5534 33.2574 37.684 33.3877L42.3448 38.0431C42.4751 38.1736 42.5487 38.3502 42.5496 38.5347C42.5505 38.7191 42.4786 38.8965 42.3496 39.0283C41.8782 39.5 41.3662 39.9295 40.8196 40.3117C38.7324 41.8093 36.2197 42.5978 33.651 42.5613C31.0823 42.5248 28.5931 41.6652 26.5492 40.1089H26.5516Z" fill="black"/>
</svg>
